<svg data-v-fde0c5aa="" xmlns="http://www.w3.org/2000/svg" viewBox="0 0 300 300" class="iconLeftSlogan"><!----><defs data-v-fde0c5aa=""><!----></defs><rect data-v-fde0c5aa="" fill="#E5EAFE" x="0" y="0" width="300px" height="300px" class="logo-background-square"></rect><defs data-v-fde0c5aa=""><!----></defs><g data-v-fde0c5aa="" id="d18a87a8-0817-4856-9f9f-8b905dcacef4" fill="#22255B" transform="matrix(2.419134188225966,0,0,2.419134188225966,101.183840600642,118.03426175547351)"><path d="M1.36 14Q1.26 14 1.20 13.94Q1.15 13.89 1.15 13.79L1.15 13.79L1.15 4.41Q1.15 4.31 1.20 4.26Q1.26 4.20 1.36 4.20L1.36 4.20L2.25 4.20Q2.42 4.20 2.51 4.34L2.51 4.34L6.79 11.27Q6.82 11.31 6.85 11.30Q6.87 11.30 6.87 11.24L6.87 11.24L6.87 4.41Q6.87 4.31 6.93 4.26Q6.99 4.20 7.08 4.20L7.08 4.20L8.01 4.20Q8.11 4.20 8.16 4.26Q8.22 4.31 8.22 4.41L8.22 4.41L8.22 13.79Q8.22 13.89 8.16 13.94Q8.11 14 8.01 14L8.01 14L7.10 14Q6.93 14 6.85 13.86L6.85 13.86L2.56 6.89Q2.53 6.85 2.51 6.85Q2.48 6.86 2.48 6.92L2.48 6.92L2.49 13.79Q2.49 13.89 2.44 13.94Q2.38 14 2.28 14L2.28 14L1.36 14ZM14.57 7.08Q14.57 6.99 14.63 6.93Q14.69 6.87 14.78 6.87L14.78 6.87L15.69 6.87Q15.79 6.87 15.85 6.93Q15.90 6.99 15.90 7.08L15.90 7.08L15.90 13.79Q15.90 13.89 15.85 13.94Q15.79 14 15.69 14L15.69 14L14.78 14Q14.69 14 14.63 13.94Q14.57 13.89 14.57 13.79L14.57 13.79L14.57 13.37Q14.57 13.33 14.55 13.32Q14.52 13.31 14.49 13.34L14.49 13.34Q13.93 14.10 12.78 14.10L12.78 14.10Q12.10 14.10 11.52 13.83Q10.93 13.57 10.58 13.05Q10.23 12.53 10.23 11.79L10.23 11.79L10.23 7.08Q10.23 6.99 10.29 6.93Q10.35 6.87 10.44 6.87L10.44 6.87L11.35 6.87Q11.45 6.87 11.51 6.93Q11.56 6.99 11.56 7.08L11.56 7.08L11.56 11.37Q11.56 12.10 11.95 12.52Q12.33 12.94 13.03 12.94L13.03 12.94Q13.73 12.94 14.15 12.51Q14.57 12.08 14.57 11.37L14.57 11.37L14.57 7.08ZM21.38 7.77Q21.38 7.87 21.32 7.92Q21.27 7.98 21.17 7.98L21.17 7.98L19.74 7.98Q19.67 7.98 19.67 8.05L19.67 8.05L19.67 11.70Q19.67 12.31 19.93 12.56Q20.19 12.81 20.76 12.81L20.76 12.81L21.10 12.81Q21.20 12.81 21.25 12.87Q21.31 12.92 21.31 13.02L21.31 13.02L21.31 13.75Q21.31 13.94 21.10 13.97L21.10 13.97L20.52 13.99Q19.45 13.99 18.91 13.61Q18.38 13.23 18.38 12.19L18.38 12.19L18.38 8.05Q18.38 7.98 18.31 7.98L18.31 7.98L17.54 7.98Q17.44 7.98 17.39 7.92Q17.33 7.87 17.33 7.77L17.33 7.77L17.33 7.08Q17.33 6.99 17.39 6.93Q17.44 6.87 17.54 6.87L17.54 6.87L18.31 6.87Q18.38 6.87 18.38 6.80L18.38 6.80L18.38 5.24Q18.38 5.14 18.44 5.08Q18.49 5.03 18.59 5.03L18.59 5.03L19.46 5.03Q19.56 5.03 19.61 5.08Q19.67 5.14 19.67 5.24L19.67 5.24L19.67 6.80Q19.67 6.87 19.74 6.87L19.74 6.87L21.17 6.87Q21.27 6.87 21.32 6.93Q21.38 6.99 21.38 7.08L21.38 7.08L21.38 7.77ZM26.15 6.80Q26.57 6.80 26.91 6.96L26.91 6.96Q27.06 7.04 27.02 7.22L27.02 7.22L26.82 8.13Q26.81 8.27 26.68 8.27L26.68 8.27Q26.61 8.27 26.57 8.26L26.57 8.26Q26.36 8.19 26.10 8.19L26.10 8.19Q25.96 8.19 25.89 8.20L25.89 8.20Q25.23 8.23 24.80 8.66Q24.37 9.09 24.37 9.77L24.37 9.77L24.37 13.79Q24.37 13.89 24.32 13.94Q24.26 14 24.16 14L24.16 14L23.24 14Q23.14 14 23.09 13.94Q23.03 13.89 23.03 13.79L23.03 13.79L23.03 7.08Q23.03 6.99 23.09 6.93Q23.14 6.87 23.24 6.87L23.24 6.87L24.16 6.87Q24.26 6.87 24.32 6.93Q24.37 6.99 24.37 7.08L24.37 7.08L24.37 7.73Q24.37 7.78 24.39 7.79Q24.42 7.80 24.44 7.76L24.44 7.76Q25.07 6.80 26.15 6.80L26.15 6.80ZM29.01 5.81Q28.60 5.81 28.34 5.56Q28.08 5.32 28.08 4.93L28.08 4.93Q28.08 4.54 28.34 4.29Q28.60 4.05 29.01 4.05L29.01 4.05Q29.41 4.05 29.67 4.29Q29.92 4.54 29.92 4.93L29.92 4.93Q29.92 5.32 29.67 5.56Q29.41 5.81 29.01 5.81L29.01 5.81ZM28.55 14Q28.45 14 28.39 13.94Q28.34 13.89 28.34 13.79L28.34 13.79L28.34 7.08Q28.34 6.99 28.39 6.93Q28.45 6.87 28.55 6.87L28.55 6.87L29.47 6.87Q29.57 6.87 29.62 6.93Q29.68 6.99 29.68 7.08L29.68 7.08L29.68 13.79Q29.68 13.89 29.62 13.94Q29.57 14 29.47 14L29.47 14L28.55 14ZM35.06 14.11Q34.05 14.11 33.27 13.71Q32.49 13.31 32.07 12.58Q31.64 11.84 31.64 10.89L31.64 10.89L31.64 7.31Q31.64 6.34 32.07 5.61Q32.49 4.89 33.27 4.49Q34.05 4.09 35.06 4.09L35.06 4.09Q36.06 4.09 36.83 4.48Q37.60 4.87 38.03 5.56Q38.46 6.26 38.46 7.13L38.46 7.13L38.46 7.21Q38.46 7.31 38.40 7.36Q38.35 7.42 38.25 7.42L38.25 7.42L37.32 7.42Q37.23 7.42 37.17 7.38Q37.11 7.34 37.11 7.28L37.11 7.28L37.11 7.15Q37.11 6.31 36.55 5.79Q35.98 5.26 35.06 5.26L35.06 5.26Q34.12 5.26 33.55 5.81Q32.98 6.36 32.98 7.27L32.98 7.27L32.98 10.93Q32.98 11.84 33.57 12.39Q34.16 12.94 35.11 12.94L35.11 12.94Q36.04 12.94 36.58 12.45Q37.11 11.97 37.11 11.13L37.11 11.13L37.11 10.07Q37.11 10.00 37.04 10.00L37.04 10.00L35.24 10.00Q35.14 10.00 35.08 9.94Q35.03 9.88 35.03 9.79L35.03 9.79L35.03 9.06Q35.03 8.96 35.08 8.90Q35.14 8.85 35.24 8.85L35.24 8.85L38.25 8.85Q38.35 8.85 38.40 8.90Q38.46 8.96 38.46 9.06L38.46 9.06L38.46 10.77Q38.46 12.38 37.54 13.24Q36.62 14.11 35.06 14.11L35.06 14.11ZM44.46 7.08Q44.46 6.99 44.52 6.93Q44.58 6.87 44.67 6.87L44.67 6.87L45.58 6.87Q45.68 6.87 45.74 6.93Q45.79 6.99 45.79 7.08L45.79 7.08L45.79 13.79Q45.79 13.89 45.74 13.94Q45.68 14 45.58 14L45.58 14L44.67 14Q44.58 14 44.52 13.94Q44.46 13.89 44.46 13.79L44.46 13.79L44.46 13.37Q44.46 13.33 44.44 13.32Q44.41 13.31 44.38 13.34L44.38 13.34Q43.82 14.10 42.67 14.10L42.67 14.10Q41.99 14.10 41.41 13.83Q40.82 13.57 40.47 13.05Q40.12 12.53 40.12 11.79L40.12 11.79L40.12 7.08Q40.12 6.99 40.18 6.93Q40.24 6.87 40.33 6.87L40.33 6.87L41.24 6.87Q41.34 6.87 41.40 6.93Q41.45 6.99 41.45 7.08L41.45 7.08L41.45 11.37Q41.45 12.10 41.84 12.52Q42.22 12.94 42.92 12.94L42.92 12.94Q43.62 12.94 44.04 12.51Q44.46 12.08 44.46 11.37L44.46 11.37L44.46 7.08ZM50.37 6.76Q51.23 6.76 51.86 7.06Q52.50 7.36 52.84 7.90Q53.19 8.44 53.19 9.13L53.19 9.13L53.19 13.79Q53.19 13.89 53.13 13.94Q53.07 14 52.98 14L52.98 14L52.05 14Q51.95 14 51.90 13.94Q51.84 13.89 51.84 13.79L51.84 13.79L51.84 13.40Q51.84 13.36 51.81 13.34Q51.79 13.33 51.76 13.36L51.76 13.36Q51.37 13.72 50.83 13.92Q50.29 14.11 49.66 14.11L49.66 14.11Q48.64 14.11 47.98 13.59Q47.32 13.06 47.32 12.00L47.32 12.00Q47.32 10.91 48.08 10.28Q48.85 9.66 50.22 9.66L50.22 9.66L51.77 9.66Q51.84 9.66 51.84 9.59L51.84 9.59L51.84 9.23Q51.84 8.61 51.48 8.27Q51.13 7.92 50.40 7.92L50.40 7.92Q49.83 7.92 49.47 8.13Q49.11 8.34 49 8.72L49 8.72Q48.94 8.90 48.76 8.89L48.76 8.89L47.75 8.76Q47.66 8.75 47.60 8.70Q47.54 8.65 47.56 8.58L47.56 8.58Q47.68 7.78 48.46 7.27Q49.24 6.76 50.37 6.76L50.37 6.76ZM49.99 12.98Q50.74 12.98 51.29 12.59Q51.84 12.19 51.84 11.59L51.84 11.59L51.84 10.78Q51.84 10.71 51.77 10.71L51.77 10.71L50.47 10.71Q49.64 10.71 49.15 11.03Q48.66 11.35 48.66 11.93L48.66 11.93Q48.66 12.45 49.04 12.71Q49.41 12.98 49.99 12.98L49.99 12.98ZM58.11 6.80Q58.53 6.80 58.87 6.96L58.87 6.96Q59.02 7.04 58.98 7.22L58.98 7.22L58.79 8.13Q58.77 8.27 58.65 8.27L58.65 8.27Q58.58 8.27 58.53 8.26L58.53 8.26Q58.32 8.19 58.06 8.19L58.06 8.19Q57.92 8.19 57.85 8.20L57.85 8.20Q57.19 8.23 56.76 8.66Q56.34 9.09 56.34 9.77L56.34 9.77L56.34 13.79Q56.34 13.89 56.28 13.94Q56.22 14 56.13 14L56.13 14L55.20 14Q55.10 14 55.05 13.94Q54.99 13.89 54.99 13.79L54.99 13.79L54.99 7.08Q54.99 6.99 55.05 6.93Q55.10 6.87 55.20 6.87L55.20 6.87L56.13 6.87Q56.22 6.87 56.28 6.93Q56.34 6.99 56.34 7.08L56.34 7.08L56.34 7.73Q56.34 7.78 56.36 7.79Q56.38 7.80 56.41 7.76L56.41 7.76Q57.04 6.80 58.11 6.80L58.11 6.80ZM64.30 4.41Q64.30 4.31 64.36 4.26Q64.41 4.20 64.51 4.20L64.51 4.20L65.44 4.20Q65.53 4.20 65.59 4.26Q65.65 4.31 65.65 4.41L65.65 4.41L65.65 13.79Q65.65 13.89 65.59 13.94Q65.53 14 65.44 14L65.44 14L64.51 14Q64.41 14 64.36 13.94Q64.30 13.89 64.30 13.79L64.30 13.79L64.30 13.43Q64.30 13.38 64.27 13.37Q64.25 13.36 64.22 13.38L64.22 13.38Q63.91 13.73 63.50 13.92Q63.08 14.11 62.59 14.11L62.59 14.11Q61.59 14.11 60.92 13.62Q60.26 13.12 59.95 12.21L59.95 12.21Q59.70 11.51 59.70 10.42L59.70 10.42Q59.70 9.39 59.91 8.72L59.91 8.72Q60.20 7.80 60.88 7.28Q61.56 6.76 62.59 6.76L62.59 6.76Q63.08 6.76 63.50 6.94Q63.91 7.13 64.22 7.48L64.22 7.48Q64.25 7.50 64.27 7.50Q64.30 7.49 64.30 7.45L64.30 7.45L64.30 4.41ZM63.95 12.19Q64.29 11.58 64.29 10.43L64.29 10.43Q64.29 9.28 63.92 8.64L63.92 8.64Q63.52 7.92 62.73 7.92L62.73 7.92Q61.92 7.92 61.49 8.60L61.49 8.60Q61.04 9.30 61.04 10.44L61.04 10.44Q61.04 11.52 61.39 12.18L61.39 12.18Q61.80 12.95 62.73 12.95L62.73 12.95Q63.53 12.95 63.95 12.19L63.95 12.19Z"></path></g><defs data-v-fde0c5aa=""><linearGradient data-v-fde0c5aa="" gradientTransform="rotate(25)" id="8536d763-3e28-4699-8b56-d7735922da99" x1="0%" y1="0%" x2="100%" y2="0%"><stop data-v-fde0c5aa="" offset="0%" stop-color="#5106FF" stop-opacity="1"></stop><stop data-v-fde0c5aa="" offset="100%" stop-color="#61CBF2" stop-opacity="1"></stop></linearGradient></defs><g data-v-fde0c5aa="" id="230b3fa3-a75c-4cbb-af53-f824f9f99f79" stroke="none" fill="url(#8536d763-3e28-4699-8b56-d7735922da99)" transform="matrix(0.17758134097360698,0,0,0.17758134097360698,35.91562915760704,120.43270672789444)"><path d="M23 84c36 0 50-12 50-49l94-14 93 14c0 37 15 49 50 49 0 117-18 195-143 228C42 279 23 201 23 84zm192 94c0-27-48-89-48-89s-49 62-49 89c0 63 97 63 97 0zm-74-10c6 0 9 17 6 23-3 8-10 8-13 0-2-7-1-23 7-23z"></path></g><defs data-v-fde0c5aa=""><!----></defs><g data-v-fde0c5aa="" id="df3c18a8-9ced-409e-be73-acc9366d2b99" fill="#22255B" transform="matrix(0.30866070290319386,0,0,0.30866070290319386,103.848553784595,160.41505158129308)"><path d="M3.70 15.68L3.70 12.24L3.44 12.24L0.38 5.88L1.69 5.88L4.20 11.23L4.37 11.23L6.87 5.88L8.19 5.88L5.12 12.24L4.87 12.24L4.87 15.68L3.70 15.68ZM16.41 11.87L16.41 9.69Q16.41 7.78 17.32 6.73Q18.23 5.68 19.85 5.68L19.85 5.68Q21.48 5.68 22.39 6.73Q23.30 7.78 23.30 9.69L23.30 9.69L23.30 11.87Q23.30 13.83 22.39 14.85Q21.48 15.88 19.85 15.88L19.85 15.88Q18.23 15.88 17.32 14.85Q16.41 13.83 16.41 11.87L16.41 11.87ZM19.85 14.78L19.85 14.78Q20.99 14.78 21.55 14.01Q22.12 13.23 22.12 11.79L22.12 11.79L22.12 9.77Q22.12 8.43 21.55 7.60Q20.99 6.78 19.85 6.78L19.85 6.78Q18.72 6.78 18.15 7.60Q17.58 8.43 17.58 9.77L17.58 9.77L17.58 11.79Q17.58 13.23 18.15 14.01Q18.72 14.78 19.85 14.78ZM32.06 5.88L33.24 5.88L33.24 12.38Q33.24 13.57 33.79 14.17Q34.34 14.78 35.42 14.78L35.42 14.78Q36.50 14.78 37.05 14.17Q37.60 13.57 37.60 12.38L37.60 12.38L37.60 5.88L38.78 5.88L38.78 12.38Q38.78 14.08 37.88 14.98Q36.99 15.88 35.42 15.88L35.42 15.88Q33.85 15.88 32.96 14.98Q32.06 14.08 32.06 12.38L32.06 12.38L32.06 5.88ZM54.05 12.15L54.05 15.68L52.88 15.68L52.88 12.40Q52.88 12.04 52.71 11.84Q52.54 11.65 52.12 11.65L52.12 11.65L49.07 11.65L49.07 15.68L47.89 15.68L47.89 5.88L51.39 5.88Q52.15 5.88 52.71 6.10Q53.27 6.31 53.64 6.68Q54.01 7.04 54.20 7.53Q54.39 8.01 54.39 8.54L54.39 8.54L54.39 8.96Q54.39 9.51 54.09 10.05Q53.79 10.60 53.16 10.89L53.16 10.89L53.16 11.06Q53.58 11.13 53.82 11.40Q54.05 11.66 54.05 12.15L54.05 12.15ZM49.07 6.97L49.07 10.56L51.25 10.56Q52.25 10.56 52.73 10.13Q53.21 9.70 53.21 8.88L53.21 8.88L53.21 8.62Q53.21 7.88 52.73 7.43Q52.25 6.97 51.25 6.97L51.25 6.97L49.07 6.97ZM82.53 11.65L80.21 11.65L80.21 15.68L79.03 15.68L79.03 5.88L82.53 5.88Q83.29 5.88 83.85 6.10Q84.41 6.31 84.78 6.68Q85.15 7.04 85.34 7.53Q85.53 8.01 85.53 8.54L85.53 8.54L85.53 8.96Q85.53 9.49 85.34 9.98Q85.15 10.47 84.77 10.84Q84.39 11.21 83.83 11.43Q83.27 11.65 82.53 11.65L82.53 11.65ZM80.21 6.97L80.21 10.56L82.39 10.56Q84.35 10.56 84.35 8.88L84.35 8.88L84.35 8.62Q84.35 7.88 83.87 7.43Q83.38 6.97 82.39 6.97L82.39 6.97L80.21 6.97ZM94.72 15.68L94.72 5.88L100.66 5.88L100.66 6.97L95.90 6.97L95.90 10.22L100.58 10.22L100.58 11.31L95.90 11.31L95.90 14.59L100.74 14.59L100.74 15.68L94.72 15.68ZM116.33 12.15L116.33 15.68L115.15 15.68L115.15 12.40Q115.15 12.04 114.98 11.84Q114.81 11.65 114.39 11.65L114.39 11.65L111.34 11.65L111.34 15.68L110.17 15.68L110.17 5.88L113.67 5.88Q114.42 5.88 114.98 6.10Q115.54 6.31 115.91 6.68Q116.28 7.04 116.47 7.53Q116.66 8.01 116.66 8.54L116.66 8.54L116.66 8.96Q116.66 9.51 116.36 10.05Q116.06 10.60 115.43 10.89L115.43 10.89L115.43 11.06Q115.85 11.13 116.09 11.40Q116.33 11.66 116.33 12.15L116.33 12.15ZM111.34 6.97L111.34 10.56L113.53 10.56Q114.52 10.56 115.00 10.13Q115.49 9.70 115.49 8.88L115.49 8.88L115.49 8.62Q115.49 7.88 115.00 7.43Q114.52 6.97 113.53 6.97L113.53 6.97L111.34 6.97ZM131.14 9.21L131.14 8.71Q131.14 8.23 130.95 7.87Q130.76 7.50 130.44 7.27Q130.12 7.03 129.70 6.90Q129.28 6.78 128.81 6.78L128.81 6.78Q128.41 6.78 128.04 6.88Q127.68 6.99 127.39 7.18Q127.11 7.38 126.94 7.66Q126.77 7.95 126.77 8.33L126.77 8.33L126.77 8.41Q126.77 8.82 126.94 9.11Q127.11 9.39 127.44 9.60Q127.76 9.80 128.25 9.93Q128.74 10.07 129.40 10.16L129.40 10.16Q130.94 10.40 131.67 11.07Q132.40 11.73 132.40 12.85L132.40 12.85L132.40 13.02Q132.40 13.65 132.18 14.17Q131.96 14.70 131.54 15.08Q131.11 15.46 130.48 15.67Q129.85 15.88 129.02 15.88L129.02 15.88Q128.09 15.88 127.36 15.60Q126.64 15.33 126.16 14.85Q125.68 14.36 125.43 13.71Q125.17 13.06 125.17 12.29L125.17 12.29L125.17 11.87L126.35 11.87L126.35 12.21Q126.35 13.50 127.06 14.14Q127.76 14.78 129.02 14.78L129.02 14.78Q130.12 14.78 130.67 14.30Q131.22 13.82 131.22 13.02L131.22 13.02L131.22 12.94Q131.22 12.17 130.66 11.76Q130.09 11.35 128.81 11.17L128.81 11.17Q128.07 11.07 127.48 10.87Q126.88 10.67 126.46 10.34Q126.04 10.01 125.82 9.55Q125.59 9.09 125.59 8.46L125.59 8.46L125.59 8.29Q125.59 7.71 125.83 7.24Q126.07 6.76 126.50 6.41Q126.92 6.06 127.52 5.87Q128.11 5.68 128.83 5.68L128.83 5.68Q129.65 5.68 130.31 5.92Q130.96 6.16 131.40 6.56Q131.85 6.96 132.08 7.50Q132.31 8.04 132.31 8.62L132.31 8.62L132.31 9.21L131.14 9.21ZM140.95 11.87L140.95 9.69Q140.95 7.78 141.86 6.73Q142.77 5.68 144.40 5.68L144.40 5.68Q146.02 5.68 146.93 6.73Q147.84 7.78 147.84 9.69L147.84 9.69L147.84 11.87Q147.84 13.83 146.93 14.85Q146.02 15.88 144.40 15.88L144.40 15.88Q142.77 15.88 141.86 14.85Q140.95 13.83 140.95 11.87L140.95 11.87ZM144.40 14.78L144.40 14.78Q145.53 14.78 146.10 14.01Q146.66 13.23 146.66 11.79L146.66 11.79L146.66 9.77Q146.66 8.43 146.10 7.60Q145.53 6.78 144.40 6.78L144.40 6.78Q143.26 6.78 142.69 7.60Q142.13 8.43 142.13 9.77L142.13 9.77L142.13 11.79Q142.13 13.23 142.69 14.01Q143.26 14.78 144.40 14.78ZM159.05 5.88L161.88 15.18L162.05 15.18L162.05 5.88L163.23 5.88L163.23 15.68L160.87 15.68L158.05 6.38L157.88 6.38L157.88 15.68L156.70 15.68L156.70 5.88L159.05 5.88ZM178.35 15.68L177.63 13.24L173.43 13.24L172.72 15.68L171.46 15.68L174.43 5.88L176.64 5.88L179.61 15.68L178.35 15.68ZM175.62 6.38L175.45 6.38L173.75 12.15L177.31 12.15L175.62 6.38ZM188.03 15.68L188.03 5.88L189.21 5.88L189.21 14.59L194.33 14.59L194.33 15.68L188.03 15.68ZM221.33 5.88L224.15 15.18L224.32 15.18L224.32 5.88L225.50 5.88L225.50 15.68L223.15 15.68L220.32 6.38L220.15 6.38L220.15 15.68L218.97 15.68L218.97 5.88L221.33 5.88ZM234.44 5.88L235.62 5.88L235.62 12.38Q235.62 13.57 236.17 14.17Q236.73 14.78 237.80 14.78L237.80 14.78Q238.88 14.78 239.44 14.17Q239.99 13.57 239.99 12.38L239.99 12.38L239.99 5.88L241.16 5.88L241.16 12.38Q241.16 14.08 240.27 14.98Q239.37 15.88 237.80 15.88L237.80 15.88Q236.24 15.88 235.34 14.98Q234.44 14.08 234.44 12.38L234.44 12.38L234.44 5.88ZM249.93 6.97L249.93 5.88L256.82 5.88L256.82 6.97L253.96 6.97L253.96 15.68L252.78 15.68L252.78 6.97L249.93 6.97ZM272.01 12.15L272.01 15.68L270.83 15.68L270.83 12.40Q270.83 12.04 270.66 11.84Q270.49 11.65 270.07 11.65L270.07 11.65L267.02 11.65L267.02 15.68L265.85 15.68L265.85 5.88L269.35 5.88Q270.10 5.88 270.66 6.10Q271.22 6.31 271.59 6.68Q271.96 7.04 272.15 7.53Q272.34 8.01 272.34 8.54L272.34 8.54L272.34 8.96Q272.34 9.51 272.04 10.05Q271.74 10.60 271.11 10.89L271.11 10.89L271.11 11.06Q271.53 11.13 271.77 11.40Q272.01 11.66 272.01 12.15L272.01 12.15ZM267.02 6.97L267.02 10.56L269.21 10.56Q270.20 10.56 270.68 10.13Q271.17 9.70 271.17 8.88L271.17 8.88L271.17 8.62Q271.17 7.88 270.68 7.43Q270.20 6.97 269.21 6.97L269.21 6.97L267.02 6.97ZM281.40 6.97L281.40 5.88L287.62 5.88L287.62 6.97L285.10 6.97L285.10 14.59L287.62 14.59L287.62 15.68L281.40 15.68L281.40 14.59L283.92 14.59L283.92 6.97L281.40 6.97ZM296.63 6.97L296.63 5.88L303.52 5.88L303.52 6.97L300.66 6.97L300.66 15.68L299.49 15.68L299.49 6.97L296.63 6.97ZM312.54 6.97L312.54 5.88L318.75 5.88L318.75 6.97L316.23 6.97L316.23 14.59L318.75 14.59L318.75 15.68L312.54 15.68L312.54 14.59L315.06 14.59L315.06 6.97L312.54 6.97ZM327.77 11.87L327.77 9.69Q327.77 7.78 328.68 6.73Q329.59 5.68 331.21 5.68L331.21 5.68Q332.84 5.68 333.75 6.73Q334.66 7.78 334.66 9.69L334.66 9.69L334.66 11.87Q334.66 13.83 333.75 14.85Q332.84 15.88 331.21 15.88L331.21 15.88Q329.59 15.88 328.68 14.85Q327.77 13.83 327.77 11.87L327.77 11.87ZM331.21 14.78L331.21 14.78Q332.35 14.78 332.91 14.01Q333.48 13.23 333.48 11.79L333.48 11.79L333.48 9.77Q333.48 8.43 332.91 7.60Q332.35 6.78 331.21 6.78L331.21 6.78Q330.08 6.78 329.51 7.60Q328.94 8.43 328.94 9.77L328.94 9.77L328.94 11.79Q328.94 13.23 329.51 14.01Q330.08 14.78 331.21 14.78ZM345.87 5.88L348.70 15.18L348.87 15.18L348.87 5.88L350.04 5.88L350.04 15.68L347.69 15.68L344.86 6.38L344.69 6.38L344.69 15.68L343.52 15.68L343.52 5.88L345.87 5.88ZM380.73 15.68L380.02 13.24L375.82 13.24L375.10 15.68L373.84 15.68L376.81 5.88L379.02 5.88L381.99 15.68L380.73 15.68ZM378.00 6.38L377.83 6.38L376.14 12.15L379.69 12.15L378.00 6.38ZM395.79 9.21L395.79 8.71Q395.79 8.23 395.60 7.87Q395.42 7.50 395.09 7.27Q394.77 7.03 394.35 6.90Q393.93 6.78 393.47 6.78L393.47 6.78Q393.06 6.78 392.70 6.88Q392.34 6.99 392.05 7.18Q391.76 7.38 391.59 7.66Q391.43 7.95 391.43 8.33L391.43 8.33L391.43 8.41Q391.43 8.82 391.59 9.11Q391.76 9.39 392.09 9.60Q392.42 9.80 392.91 9.93Q393.40 10.07 394.06 10.16L394.06 10.16Q395.60 10.40 396.33 11.07Q397.05 11.73 397.05 12.85L397.05 12.85L397.05 13.02Q397.05 13.65 396.84 14.17Q396.62 14.70 396.19 15.08Q395.77 15.46 395.14 15.67Q394.51 15.88 393.68 15.88L393.68 15.88Q392.74 15.88 392.02 15.60Q391.30 15.33 390.82 14.85Q390.33 14.36 390.08 13.71Q389.83 13.06 389.83 12.29L389.83 12.29L389.83 11.87L391.01 11.87L391.01 12.21Q391.01 13.50 391.71 14.14Q392.42 14.78 393.68 14.78L393.68 14.78Q394.77 14.78 395.32 14.30Q395.88 13.82 395.88 13.02L395.88 13.02L395.88 12.94Q395.88 12.17 395.31 11.76Q394.74 11.35 393.47 11.17L393.47 11.17Q392.73 11.07 392.13 10.87Q391.54 10.67 391.12 10.34Q390.70 10.01 390.47 9.55Q390.25 9.09 390.25 8.46L390.25 8.46L390.25 8.29Q390.25 7.71 390.49 7.24Q390.73 6.76 391.15 6.41Q391.58 6.06 392.17 5.87Q392.77 5.68 393.48 5.68L393.48 5.68Q394.31 5.68 394.96 5.92Q395.61 6.16 396.06 6.56Q396.51 6.96 396.74 7.50Q396.97 8.04 396.97 8.62L396.97 8.62L396.97 9.21L395.79 9.21ZM411.36 9.21L411.36 8.71Q411.36 8.23 411.17 7.87Q410.98 7.50 410.66 7.27Q410.34 7.03 409.92 6.90Q409.50 6.78 409.04 6.78L409.04 6.78Q408.63 6.78 408.27 6.88Q407.90 6.99 407.62 7.18Q407.33 7.38 407.16 7.66Q406.99 7.95 406.99 8.33L406.99 8.33L406.99 8.41Q406.99 8.82 407.16 9.11Q407.33 9.39 407.66 9.60Q407.99 9.80 408.48 9.93Q408.97 10.07 409.63 10.16L409.63 10.16Q411.17 10.40 411.89 11.07Q412.62 11.73 412.62 12.85L412.62 12.85L412.62 13.02Q412.62 13.65 412.40 14.17Q412.19 14.70 411.76 15.08Q411.33 15.46 410.70 15.67Q410.07 15.88 409.25 15.88L409.25 15.88Q408.31 15.88 407.59 15.60Q406.87 15.33 406.38 14.85Q405.90 14.36 405.65 13.71Q405.40 13.06 405.40 12.29L405.40 12.29L405.40 11.87L406.57 11.87L406.57 12.21Q406.57 13.50 407.28 14.14Q407.99 14.78 409.25 14.78L409.25 14.78Q410.34 14.78 410.89 14.30Q411.45 13.82 411.45 13.02L411.45 13.02L411.45 12.94Q411.45 12.17 410.88 11.76Q410.31 11.35 409.04 11.17L409.04 11.17Q408.30 11.07 407.70 10.87Q407.11 10.67 406.69 10.34Q406.27 10.01 406.04 9.55Q405.82 9.09 405.82 8.46L405.82 8.46L405.82 8.29Q405.82 7.71 406.06 7.24Q406.29 6.76 406.72 6.41Q407.15 6.06 407.74 5.87Q408.34 5.68 409.05 5.68L409.05 5.68Q409.88 5.68 410.53 5.92Q411.18 6.16 411.63 6.56Q412.08 6.96 412.31 7.50Q412.54 8.04 412.54 8.62L412.54 8.62L412.54 9.21L411.36 9.21ZM421.51 6.97L421.51 5.88L427.73 5.88L427.73 6.97L425.21 6.97L425.21 14.59L427.73 14.59L427.73 15.68L421.51 15.68L421.51 14.59L424.03 14.59L424.03 6.97L421.51 6.97ZM442.50 9.21L442.50 8.71Q442.50 8.23 442.31 7.87Q442.12 7.50 441.80 7.27Q441.48 7.03 441.06 6.90Q440.64 6.78 440.17 6.78L440.17 6.78Q439.77 6.78 439.40 6.88Q439.04 6.99 438.75 7.18Q438.47 7.38 438.30 7.66Q438.13 7.95 438.13 8.33L438.13 8.33L438.13 8.41Q438.13 8.82 438.30 9.11Q438.47 9.39 438.79 9.60Q439.12 9.80 439.61 9.93Q440.10 10.07 440.76 10.16L440.76 10.16Q442.30 10.40 443.03 11.07Q443.76 11.73 443.76 12.85L443.76 12.85L443.76 13.02Q443.76 13.65 443.54 14.17Q443.32 14.70 442.90 15.08Q442.47 15.46 441.84 15.67Q441.21 15.88 440.38 15.88L440.38 15.88Q439.45 15.88 438.72 15.60Q438.00 15.33 437.52 14.85Q437.04 14.36 436.79 13.71Q436.53 13.06 436.53 12.29L436.53 12.29L436.53 11.87L437.71 11.87L437.71 12.21Q437.71 13.50 438.42 14.14Q439.12 14.78 440.38 14.78L440.38 14.78Q441.48 14.78 442.03 14.30Q442.58 13.82 442.58 13.02L442.58 13.02L442.58 12.94Q442.58 12.17 442.01 11.76Q441.45 11.35 440.17 11.17L440.17 11.17Q439.43 11.07 438.84 10.87Q438.24 10.67 437.82 10.34Q437.40 10.01 437.18 9.55Q436.95 9.09 436.95 8.46L436.95 8.46L436.95 8.29Q436.95 7.71 437.19 7.24Q437.43 6.76 437.86 6.41Q438.28 6.06 438.88 5.87Q439.47 5.68 440.19 5.68L440.19 5.68Q441.01 5.68 441.66 5.92Q442.32 6.16 442.76 6.56Q443.21 6.96 443.44 7.50Q443.67 8.04 443.67 8.62L443.67 8.62L443.67 9.21L442.50 9.21ZM452.31 6.97L452.31 5.88L459.20 5.88L459.20 6.97L456.34 6.97L456.34 15.68L455.17 15.68L455.17 6.97L452.31 6.97ZM474.14 15.68L473.42 13.24L469.22 13.24L468.51 15.68L467.25 15.68L470.22 5.88L472.43 5.88L475.40 15.68L474.14 15.68ZM471.41 6.38L471.24 6.38L469.55 12.15L473.10 12.15L471.41 6.38ZM485.98 5.88L488.81 15.18L488.98 15.18L488.98 5.88L490.15 5.88L490.15 15.68L487.80 15.68L484.97 6.38L484.81 6.38L484.81 15.68L483.63 15.68L483.63 5.88L485.98 5.88ZM499.02 6.97L499.02 5.88L505.90 5.88L505.90 6.97L503.05 6.97L503.05 15.68L501.87 15.68L501.87 6.97L499.02 6.97Z"></path></g></svg>